<svg xmlns="http://www.w3.org/2000/svg" xmlns:xlink="http://www.w3.org/1999/xlink" version="1.1" width="256" height="256" viewBox="0 0 256 256" xml:space="preserve">
<desc>Created with Fabric.js 1.7.22</desc>
<defs>
</defs>
<g transform="translate(128 128) scale(0.72 0.72)" style="">
	<g style="stroke: none; stroke-width: 0; stroke-dasharray: none; stroke-linecap: butt; stroke-linejoin: miter; stroke-miterlimit: 10; fill: none; fill-rule: nonzero; opacity: 1;" transform="translate(-175.05 -175.05000000000004) scale(3.89 3.89)" >
	<polygon points="21.8,31.53 28.26,59.67 76.54,59.67 83,31.53 38.91,31.53 " style="stroke: none; stroke-width: 1; stroke-dasharray: none; stroke-linecap: butt; stroke-linejoin: miter; stroke-miterlimit: 10; fill: rgb(248,218,127); fill-rule: nonzero; opacity: 1;" transform="  matrix(1 0 0 1 0 0) "/>
	<rect x="58.03" y="16.71" rx="0" ry="0" width="18.45" height="5.82" style="stroke: none; stroke-width: 1; stroke-dasharray: none; stroke-linecap: butt; stroke-linejoin: miter; stroke-miterlimit: 10; fill: rgb(248,218,127); fill-rule: nonzero; opacity: 1;" transform=" matrix(1 0 0 1 0 0) "/>
	<path d="M 80.543 64.672 H 24.259 c -0.467 0 -0.872 -0.323 -0.975 -0.778 l -8.743 -38.4 c -0.885 -3.889 -4.289 -6.604 -8.277 -6.604 H 1 c -0.552 0 -1 -0.448 -1 -1 s 0.448 -1 1 -1 h 5.264 c 4.927 0 9.133 3.355 10.227 8.16 l 8.565 37.623 h 54.688 l 8.002 -35.144 H 38.912 c -0.552 0 -1 -0.448 -1 -1 s 0.448 -1 1 -1 H 89 c 0.305 0 0.592 0.139 0.781 0.376 c 0.19 0.238 0.262 0.549 0.193 0.846 l -8.457 37.143 C 81.414 64.349 81.01 64.672 80.543 64.672 z" style="stroke: none; stroke-width: 1; stroke-dasharray: none; stroke-linecap: butt; stroke-linejoin: miter; stroke-miterlimit: 10; fill: rgb(0,0,0); fill-rule: nonzero; opacity: 1;" transform=" matrix(1 0 0 1 0 0) " stroke-linecap="round" />
	<path d="M 19.438 78.466 c -4.354 0 -7.897 -3.542 -7.897 -7.896 s 3.542 -7.897 7.897 -7.897 h 61.042 c 0.553 0 1 0.447 1 1 s -0.447 1 -1 1 H 19.438 c -3.251 0 -5.897 2.646 -5.897 5.897 c 0 3.251 2.646 5.896 5.897 5.896 c 0.552 0 1 0.447 1 1 S 19.99 78.466 19.438 78.466 z" style="stroke: none; stroke-width: 1; stroke-dasharray: none; stroke-linecap: butt; stroke-linejoin: miter; stroke-miterlimit: 10; fill: rgb(0,0,0); fill-rule: nonzero; opacity: 1;" transform=" matrix(1 0 0 1 0 0) " stroke-linecap="round" />
	<path d="M 73.424 84.809 c -4.048 0 -7.342 -3.294 -7.342 -7.343 s 3.294 -7.343 7.342 -7.343 c 4.049 0 7.343 3.294 7.343 7.343 S 77.473 84.809 73.424 84.809 z M 73.424 72.123 c -2.945 0 -5.342 2.396 -5.342 5.343 s 2.396 5.343 5.342 5.343 c 2.946 0 5.343 -2.396 5.343 -5.343 S 76.37 72.123 73.424 72.123 z" style="stroke: none; stroke-width: 1; stroke-dasharray: none; stroke-linecap: butt; stroke-linejoin: miter; stroke-miterlimit: 10; fill: rgb(0,0,0); fill-rule: nonzero; opacity: 1;" transform=" matrix(1 0 0 1 0 0) " stroke-linecap="round" />
	<path d="M 33.959 84.809 c -4.048 0 -7.342 -3.294 -7.342 -7.343 s 3.294 -7.343 7.342 -7.343 c 4.049 0 7.343 3.294 7.343 7.343 S 38.008 84.809 33.959 84.809 z M 33.959 72.123 c -2.946 0 -5.342 2.396 -5.342 5.343 s 2.396 5.343 5.342 5.343 s 5.343 -2.396 5.343 -5.343 S 36.905 72.123 33.959 72.123 z" style="stroke: none; stroke-width: 1; stroke-dasharray: none; stroke-linecap: butt; stroke-linejoin: miter; stroke-miterlimit: 10; fill: rgb(0,0,0); fill-rule: nonzero; opacity: 1;" transform=" matrix(1 0 0 1 0 0) " stroke-linecap="round" />
	<path d="M 58.085 78.466 H 40.302 c -0.552 0 -1 -0.447 -1 -1 s 0.448 -1 1 -1 h 17.783 c 0.553 0 1 0.447 1 1 S 58.638 78.466 58.085 78.466 z" style="stroke: none; stroke-width: 1; stroke-dasharray: none; stroke-linecap: butt; stroke-linejoin: miter; stroke-miterlimit: 10; fill: rgb(0,0,0); fill-rule: nonzero; opacity: 1;" transform=" matrix(1 0 0 1 0 0) " stroke-linecap="round" />
	<path d="M 80.479 27.528 h -26.45 c -0.553 0 -1 -0.448 -1 -1 V 12.712 c 0 -0.552 0.447 -1 1 -1 h 26.45 c 0.553 0 1 0.448 1 1 v 13.816 C 81.479 27.081 81.032 27.528 80.479 27.528 z M 55.029 25.528 h 24.45 V 13.712 h -24.45 V 25.528 z" style="stroke: none; stroke-width: 1; stroke-dasharray: none; stroke-linecap: butt; stroke-linejoin: miter; stroke-miterlimit: 10; fill: rgb(0,0,0); fill-rule: nonzero; opacity: 1;" transform=" matrix(1 0 0 1 0 0) " stroke-linecap="round" />
	<path d="M 27.811 27.528 c -0.552 0 -1 -0.448 -1 -1 V 6.191 c 0 -0.552 0.448 -1 1 -1 h 34.705 c 0.553 0 1 0.448 1 1 v 6.521 c 0 0.552 -0.447 1 -1 1 s -1 -0.448 -1 -1 V 7.191 H 28.811 v 19.337 C 28.811 27.081 28.363 27.528 27.811 27.528 z" style="stroke: none; stroke-width: 1; stroke-dasharray: none; stroke-linecap: butt; stroke-linejoin: miter; stroke-miterlimit: 10; fill: rgb(0,0,0); fill-rule: nonzero; opacity: 1;" transform=" matrix(1 0 0 1 0 0) " stroke-linecap="round" />
	<path d="M 52 57.207 c -0.266 0 -0.52 -0.105 -0.707 -0.293 L 41.249 46.869 c -3.058 -3.059 -3.058 -8.035 0 -11.092 c 2.946 -2.947 7.674 -3.055 10.751 -0.321 c 3.075 -2.734 7.804 -2.626 10.752 0.321 l 0 0 c 3.058 3.058 3.058 8.034 -0.001 11.092 L 52.707 56.914 C 52.52 57.102 52.266 57.207 52 57.207 z M 46.795 35.482 c -1.497 0 -2.993 0.569 -4.132 1.708 c -2.278 2.278 -2.278 5.985 0 8.264 L 52 54.793 l 9.337 -9.338 c 2.278 -2.278 2.278 -5.986 0.001 -8.264 c -2.28 -2.279 -5.986 -2.278 -8.265 0 l -0.366 0.366 c -0.391 0.39 -1.023 0.39 -1.414 0 l -0.366 -0.366 C 49.788 36.052 48.291 35.482 46.795 35.482 z" style="stroke: none; stroke-width: 1; stroke-dasharray: none; stroke-linecap: butt; stroke-linejoin: miter; stroke-miterlimit: 10; fill: rgb(0,0,0); fill-rule: nonzero; opacity: 1;" transform=" matrix(1 0 0 1 0 0) " stroke-linecap="round" />
</g>
</g>
</svg>